<svg xmlns="http://www.w3.org/2000/svg" viewBox="0 0 23.96 23.96"><defs><style>.cls-1{fill:#42a7c3;}.cls-2{fill:#fff;}</style></defs><g id="Layer_2" data-name="Layer 2"><g id="Layer_1-2" data-name="Layer 1"><path class="cls-1" d="M2.63,0H21.33A2.63,2.63,0,0,1,24,2.63V24a0,0,0,0,1,0,0H0a0,0,0,0,1,0,0V2.63A2.63,2.63,0,0,1,2.63,0Z"/><path class="cls-2" d="M11.9,15.51a.39.39,0,0,1-.19-.12L6.16,8.48a.33.33,0,0,1,0-.46L7.91,6.31a1.16,1.16,0,0,1,.39-.26Z"/><path class="cls-2" d="M15.67,6.05l-3.61,9.46H11.9L8.3,6.05A1.18,1.18,0,0,1,8.76,6H15.2A1.27,1.27,0,0,1,15.67,6.05Z"/><path class="cls-2" d="M17.81,8.48l-5.56,6.91a.39.39,0,0,1-.19.12l3.61-9.46a1.4,1.4,0,0,1,.39.26L17.78,8A.34.34,0,0,1,17.81,8.48Z"/><rect class="cls-2" y="7.27" width="23.96" height="2.2"/></g></g></svg>